<mxfile host="app.diagrams.net" modified="2023-12-05T12:38:57.056Z" agent="Mozilla/5.0 (Windows NT 10.0; Win64; x64) AppleWebKit/537.36 (KHTML, like Gecko) Chrome/119.0.0.0 Safari/537.36" etag="Tq49-obFuAEtdFJeDX-y" version="22.1.5" type="github">
  <diagram name="Page-1" id="74e2e168-ea6b-b213-b513-2b3c1d86103e">
    <mxGraphModel dx="1674" dy="758" grid="1" gridSize="10" guides="1" tooltips="1" connect="1" arrows="1" fold="1" page="1" pageScale="1" pageWidth="1100" pageHeight="850" background="none" math="0" shadow="0">
      <root>
        <mxCell id="0" />
        <mxCell id="1" parent="0" />
        <mxCell id="77e6c97f196da883-1" value="" style="swimlane;html=1;childLayout=stackLayout;startSize=20;rounded=0;shadow=0;labelBackgroundColor=none;strokeWidth=1;fontFamily=Verdana;fontSize=8;align=center;" parent="1" vertex="1">
          <mxGeometry x="70" y="20" width="770" height="960" as="geometry" />
        </mxCell>
        <mxCell id="77e6c97f196da883-2" value="全球客户服务部" style="swimlane;html=1;startSize=20;" parent="77e6c97f196da883-1" vertex="1">
          <mxGeometry y="20" width="340" height="940" as="geometry" />
        </mxCell>
        <mxCell id="ZSuGLA9R8co5YekJJskA-2" value="是否丢失提单？" style="rhombus;whiteSpace=wrap;html=1;" vertex="1" parent="77e6c97f196da883-2">
          <mxGeometry x="6.25" y="110" width="117.5" height="60" as="geometry" />
        </mxCell>
        <mxCell id="ZSuGLA9R8co5YekJJskA-13" style="edgeStyle=orthogonalEdgeStyle;rounded=0;orthogonalLoop=1;jettySize=auto;html=1;exitX=0.5;exitY=1;exitDx=0;exitDy=0;entryX=0.5;entryY=0;entryDx=0;entryDy=0;" edge="1" parent="77e6c97f196da883-2" source="ZSuGLA9R8co5YekJJskA-1" target="ZSuGLA9R8co5YekJJskA-12">
          <mxGeometry relative="1" as="geometry" />
        </mxCell>
        <mxCell id="ZSuGLA9R8co5YekJJskA-1" value="货物状态检查" style="rounded=1;whiteSpace=wrap;html=1;" vertex="1" parent="77e6c97f196da883-2">
          <mxGeometry x="180" y="115" width="90" height="50" as="geometry" />
        </mxCell>
        <mxCell id="ZSuGLA9R8co5YekJJskA-8" style="edgeStyle=orthogonalEdgeStyle;rounded=0;orthogonalLoop=1;jettySize=auto;html=1;exitX=1;exitY=0.5;exitDx=0;exitDy=0;" edge="1" parent="77e6c97f196da883-2" source="ZSuGLA9R8co5YekJJskA-2" target="ZSuGLA9R8co5YekJJskA-1">
          <mxGeometry relative="1" as="geometry" />
        </mxCell>
        <mxCell id="ZSuGLA9R8co5YekJJskA-9" value="是" style="edgeLabel;html=1;align=center;verticalAlign=middle;resizable=0;points=[];" vertex="1" connectable="0" parent="ZSuGLA9R8co5YekJJskA-8">
          <mxGeometry x="-0.0256" y="-3" relative="1" as="geometry">
            <mxPoint x="-5" y="-13" as="offset" />
          </mxGeometry>
        </mxCell>
        <mxCell id="ZSuGLA9R8co5YekJJskA-5" value="处理提单&lt;br&gt;提货请求" style="rounded=1;whiteSpace=wrap;html=1;" vertex="1" parent="77e6c97f196da883-2">
          <mxGeometry x="20" y="40" width="90" height="50" as="geometry" />
        </mxCell>
        <mxCell id="ZSuGLA9R8co5YekJJskA-6" style="edgeStyle=orthogonalEdgeStyle;rounded=0;orthogonalLoop=1;jettySize=auto;html=1;exitX=0.5;exitY=1;exitDx=0;exitDy=0;entryX=0.5;entryY=0;entryDx=0;entryDy=0;" edge="1" parent="77e6c97f196da883-2" source="ZSuGLA9R8co5YekJJskA-5" target="ZSuGLA9R8co5YekJJskA-2">
          <mxGeometry relative="1" as="geometry" />
        </mxCell>
        <mxCell id="ZSuGLA9R8co5YekJJskA-16" style="edgeStyle=orthogonalEdgeStyle;rounded=0;orthogonalLoop=1;jettySize=auto;html=1;exitX=0.5;exitY=1;exitDx=0;exitDy=0;entryX=0.5;entryY=0;entryDx=0;entryDy=0;" edge="1" parent="77e6c97f196da883-2" source="ZSuGLA9R8co5YekJJskA-12" target="ZSuGLA9R8co5YekJJskA-15">
          <mxGeometry relative="1" as="geometry" />
        </mxCell>
        <mxCell id="ZSuGLA9R8co5YekJJskA-12" value="通知发货人写未拥有原始提单保证书" style="rounded=1;whiteSpace=wrap;html=1;" vertex="1" parent="77e6c97f196da883-2">
          <mxGeometry x="180" y="180" width="90" height="50" as="geometry" />
        </mxCell>
        <mxCell id="ZSuGLA9R8co5YekJJskA-14" style="edgeStyle=orthogonalEdgeStyle;rounded=0;orthogonalLoop=1;jettySize=auto;html=1;exitX=0.5;exitY=1;exitDx=0;exitDy=0;" edge="1" parent="77e6c97f196da883-2" source="ZSuGLA9R8co5YekJJskA-1" target="ZSuGLA9R8co5YekJJskA-1">
          <mxGeometry relative="1" as="geometry" />
        </mxCell>
        <mxCell id="ZSuGLA9R8co5YekJJskA-17" style="edgeStyle=orthogonalEdgeStyle;rounded=0;orthogonalLoop=1;jettySize=auto;html=1;exitX=1;exitY=0.5;exitDx=0;exitDy=0;entryX=1;entryY=0.5;entryDx=0;entryDy=0;" edge="1" parent="77e6c97f196da883-2" source="ZSuGLA9R8co5YekJJskA-15" target="ZSuGLA9R8co5YekJJskA-12">
          <mxGeometry relative="1" as="geometry" />
        </mxCell>
        <mxCell id="ZSuGLA9R8co5YekJJskA-18" value="否" style="edgeLabel;html=1;align=center;verticalAlign=middle;resizable=0;points=[];" vertex="1" connectable="0" parent="ZSuGLA9R8co5YekJJskA-17">
          <mxGeometry x="-0.1782" relative="1" as="geometry">
            <mxPoint as="offset" />
          </mxGeometry>
        </mxCell>
        <mxCell id="ZSuGLA9R8co5YekJJskA-15" value="是否收到保证书？" style="rhombus;whiteSpace=wrap;html=1;" vertex="1" parent="77e6c97f196da883-2">
          <mxGeometry x="166.25" y="250" width="117.5" height="60" as="geometry" />
        </mxCell>
        <mxCell id="ZSuGLA9R8co5YekJJskA-22" style="edgeStyle=orthogonalEdgeStyle;rounded=0;orthogonalLoop=1;jettySize=auto;html=1;exitX=0.5;exitY=1;exitDx=0;exitDy=0;" edge="1" parent="77e6c97f196da883-2" source="ZSuGLA9R8co5YekJJskA-19" target="ZSuGLA9R8co5YekJJskA-21">
          <mxGeometry relative="1" as="geometry" />
        </mxCell>
        <mxCell id="ZSuGLA9R8co5YekJJskA-27" value="是" style="edgeLabel;html=1;align=center;verticalAlign=middle;resizable=0;points=[];" vertex="1" connectable="0" parent="ZSuGLA9R8co5YekJJskA-22">
          <mxGeometry x="-0.1377" y="3" relative="1" as="geometry">
            <mxPoint x="13" y="3" as="offset" />
          </mxGeometry>
        </mxCell>
        <mxCell id="ZSuGLA9R8co5YekJJskA-19" value="通知客户提供银行签字的损害补偿保证书" style="rounded=1;whiteSpace=wrap;html=1;" vertex="1" parent="77e6c97f196da883-2">
          <mxGeometry x="180" y="400" width="90" height="50" as="geometry" />
        </mxCell>
        <mxCell id="ZSuGLA9R8co5YekJJskA-24" style="edgeStyle=orthogonalEdgeStyle;rounded=0;orthogonalLoop=1;jettySize=auto;html=1;exitX=1;exitY=0.5;exitDx=0;exitDy=0;entryX=1;entryY=0.5;entryDx=0;entryDy=0;" edge="1" parent="77e6c97f196da883-2" source="ZSuGLA9R8co5YekJJskA-21" target="ZSuGLA9R8co5YekJJskA-19">
          <mxGeometry relative="1" as="geometry" />
        </mxCell>
        <mxCell id="ZSuGLA9R8co5YekJJskA-25" value="否" style="edgeLabel;html=1;align=center;verticalAlign=middle;resizable=0;points=[];" vertex="1" connectable="0" parent="ZSuGLA9R8co5YekJJskA-24">
          <mxGeometry x="-0.1062" y="6" relative="1" as="geometry">
            <mxPoint as="offset" />
          </mxGeometry>
        </mxCell>
        <mxCell id="ZSuGLA9R8co5YekJJskA-21" value="是否收到&lt;br&gt;补偿保证书？" style="rhombus;whiteSpace=wrap;html=1;" vertex="1" parent="77e6c97f196da883-2">
          <mxGeometry x="166.25" y="470" width="117.5" height="60" as="geometry" />
        </mxCell>
        <mxCell id="ZSuGLA9R8co5YekJJskA-59" value="清关检查" style="rounded=1;whiteSpace=wrap;html=1;" vertex="1" parent="77e6c97f196da883-2">
          <mxGeometry x="20" y="600" width="90" height="50" as="geometry" />
        </mxCell>
        <mxCell id="ZSuGLA9R8co5YekJJskA-72" style="edgeStyle=orthogonalEdgeStyle;rounded=0;orthogonalLoop=1;jettySize=auto;html=1;exitX=0.5;exitY=1;exitDx=0;exitDy=0;entryX=0.5;entryY=0;entryDx=0;entryDy=0;" edge="1" parent="77e6c97f196da883-2" source="ZSuGLA9R8co5YekJJskA-69" target="ZSuGLA9R8co5YekJJskA-71">
          <mxGeometry relative="1" as="geometry" />
        </mxCell>
        <mxCell id="ZSuGLA9R8co5YekJJskA-69" value="特殊费用检查" style="rounded=1;whiteSpace=wrap;html=1;" vertex="1" parent="77e6c97f196da883-2">
          <mxGeometry x="20" y="730" width="90" height="50" as="geometry" />
        </mxCell>
        <mxCell id="ZSuGLA9R8co5YekJJskA-74" style="edgeStyle=orthogonalEdgeStyle;rounded=0;orthogonalLoop=1;jettySize=auto;html=1;exitX=0.5;exitY=1;exitDx=0;exitDy=0;entryX=0.5;entryY=0;entryDx=0;entryDy=0;" edge="1" parent="77e6c97f196da883-2" source="ZSuGLA9R8co5YekJJskA-71" target="ZSuGLA9R8co5YekJJskA-73">
          <mxGeometry relative="1" as="geometry" />
        </mxCell>
        <mxCell id="ZSuGLA9R8co5YekJJskA-71" value="验单放货" style="rounded=1;whiteSpace=wrap;html=1;" vertex="1" parent="77e6c97f196da883-2">
          <mxGeometry x="20" y="800" width="90" height="50" as="geometry" />
        </mxCell>
        <mxCell id="ZSuGLA9R8co5YekJJskA-73" value="结束" style="rounded=1;whiteSpace=wrap;html=1;" vertex="1" parent="77e6c97f196da883-2">
          <mxGeometry x="20" y="870" width="90" height="50" as="geometry" />
        </mxCell>
        <mxCell id="77e6c97f196da883-3" value="法务部" style="swimlane;html=1;startSize=20;" parent="77e6c97f196da883-1" vertex="1">
          <mxGeometry x="340" y="20" width="160" height="940" as="geometry" />
        </mxCell>
        <mxCell id="ZSuGLA9R8co5YekJJskA-52" value="核验保证书真伪" style="rounded=1;whiteSpace=wrap;html=1;" vertex="1" parent="77e6c97f196da883-3">
          <mxGeometry x="30" y="310" width="90" height="50" as="geometry" />
        </mxCell>
        <mxCell id="ZSuGLA9R8co5YekJJskA-57" value="核验补偿保证书真伪" style="rounded=1;whiteSpace=wrap;html=1;" vertex="1" parent="77e6c97f196da883-3">
          <mxGeometry x="35" y="530" width="90" height="50" as="geometry" />
        </mxCell>
        <mxCell id="77e6c97f196da883-4" value="文档部门" style="swimlane;html=1;startSize=20;" parent="77e6c97f196da883-1" vertex="1">
          <mxGeometry x="500" y="20" width="130" height="940" as="geometry" />
        </mxCell>
        <mxCell id="ZSuGLA9R8co5YekJJskA-68" style="edgeStyle=orthogonalEdgeStyle;rounded=0;orthogonalLoop=1;jettySize=auto;html=1;exitX=1;exitY=0.5;exitDx=0;exitDy=0;" edge="1" parent="77e6c97f196da883-4" source="ZSuGLA9R8co5YekJJskA-62">
          <mxGeometry relative="1" as="geometry">
            <mxPoint x="150" y="675" as="targetPoint" />
          </mxGeometry>
        </mxCell>
        <mxCell id="ZSuGLA9R8co5YekJJskA-62" value="进口文件检查" style="rounded=1;whiteSpace=wrap;html=1;" vertex="1" parent="77e6c97f196da883-4">
          <mxGeometry x="20" y="650" width="90" height="50" as="geometry" />
        </mxCell>
        <mxCell id="77e6c97f196da883-5" value="财务部" style="swimlane;html=1;startSize=20;" parent="77e6c97f196da883-1" vertex="1">
          <mxGeometry x="630" y="20" width="140" height="940" as="geometry" />
        </mxCell>
        <mxCell id="ZSuGLA9R8co5YekJJskA-64" value="费用检查" style="rounded=1;whiteSpace=wrap;html=1;" vertex="1" parent="77e6c97f196da883-5">
          <mxGeometry x="25" y="650" width="90" height="50" as="geometry" />
        </mxCell>
        <mxCell id="ZSuGLA9R8co5YekJJskA-54" style="edgeStyle=orthogonalEdgeStyle;rounded=0;orthogonalLoop=1;jettySize=auto;html=1;exitX=0.5;exitY=1;exitDx=0;exitDy=0;entryX=0;entryY=0.5;entryDx=0;entryDy=0;" edge="1" parent="77e6c97f196da883-1" source="ZSuGLA9R8co5YekJJskA-15" target="ZSuGLA9R8co5YekJJskA-52">
          <mxGeometry relative="1" as="geometry" />
        </mxCell>
        <mxCell id="ZSuGLA9R8co5YekJJskA-55" value="是" style="edgeLabel;html=1;align=center;verticalAlign=middle;resizable=0;points=[];" vertex="1" connectable="0" parent="ZSuGLA9R8co5YekJJskA-54">
          <mxGeometry x="-0.2114" y="-1" relative="1" as="geometry">
            <mxPoint x="21" y="19" as="offset" />
          </mxGeometry>
        </mxCell>
        <mxCell id="ZSuGLA9R8co5YekJJskA-56" style="edgeStyle=orthogonalEdgeStyle;rounded=0;orthogonalLoop=1;jettySize=auto;html=1;exitX=0.5;exitY=1;exitDx=0;exitDy=0;entryX=0.5;entryY=0;entryDx=0;entryDy=0;" edge="1" parent="77e6c97f196da883-1" source="ZSuGLA9R8co5YekJJskA-52" target="ZSuGLA9R8co5YekJJskA-19">
          <mxGeometry relative="1" as="geometry" />
        </mxCell>
        <mxCell id="ZSuGLA9R8co5YekJJskA-58" style="edgeStyle=orthogonalEdgeStyle;rounded=0;orthogonalLoop=1;jettySize=auto;html=1;exitX=0.5;exitY=1;exitDx=0;exitDy=0;entryX=0;entryY=0.5;entryDx=0;entryDy=0;" edge="1" parent="77e6c97f196da883-1" source="ZSuGLA9R8co5YekJJskA-21" target="ZSuGLA9R8co5YekJJskA-57">
          <mxGeometry relative="1" as="geometry" />
        </mxCell>
        <mxCell id="ZSuGLA9R8co5YekJJskA-61" style="edgeStyle=orthogonalEdgeStyle;rounded=0;orthogonalLoop=1;jettySize=auto;html=1;exitX=0.5;exitY=1;exitDx=0;exitDy=0;entryX=1;entryY=0.5;entryDx=0;entryDy=0;" edge="1" parent="77e6c97f196da883-1" source="ZSuGLA9R8co5YekJJskA-57" target="ZSuGLA9R8co5YekJJskA-59">
          <mxGeometry relative="1" as="geometry" />
        </mxCell>
        <mxCell id="ZSuGLA9R8co5YekJJskA-63" style="edgeStyle=orthogonalEdgeStyle;rounded=0;orthogonalLoop=1;jettySize=auto;html=1;exitX=0.5;exitY=1;exitDx=0;exitDy=0;" edge="1" parent="77e6c97f196da883-1" source="ZSuGLA9R8co5YekJJskA-59" target="ZSuGLA9R8co5YekJJskA-62">
          <mxGeometry relative="1" as="geometry" />
        </mxCell>
        <mxCell id="ZSuGLA9R8co5YekJJskA-70" style="edgeStyle=orthogonalEdgeStyle;rounded=0;orthogonalLoop=1;jettySize=auto;html=1;exitX=0.5;exitY=1;exitDx=0;exitDy=0;entryX=1;entryY=0.5;entryDx=0;entryDy=0;" edge="1" parent="77e6c97f196da883-1" source="ZSuGLA9R8co5YekJJskA-64" target="ZSuGLA9R8co5YekJJskA-69">
          <mxGeometry relative="1" as="geometry" />
        </mxCell>
      </root>
    </mxGraphModel>
  </diagram>
</mxfile>
